<?xml version="1.0" encoding="UTF-8"?>
<svg width="1959px" height="805px" style="background:#FFFFFF;height:805px;width:1959px" contentStyleType="text/css" preserveAspectRatio="none" version="1.1" viewBox="0 0 1959 805" xmlns="http://www.w3.org/2000/svg" zoomAndPan="magnify">
 <text x="853.5" y="32.9951" fill="#000000" font-family="sans-serif" font-size="14" font-weight="bold" textLength="249">Getting Things Done - Organise</text>
 <ellipse cx="1082.5" cy="57.297" rx="10" ry="10" fill="#222" stroke="#222"/>
 <polygon points="1050.5 134.52 1114.5 134.52 1126.5 147.32 1114.5 160.12 1050.5 160.12 1038.5 147.32" fill="#fff" stroke="#000" stroke-width=".5"/>
 <text x="1050.4531" y="144.7261" fill="#000000" font-family="sans-serif" font-size="11" textLength="61">is the item</text>
 <text x="1050.4531" y="157.5308" fill="#000000" font-family="sans-serif" font-size="11" textLength="64">actionable?</text>
 <text x="1018.4531" y="144.7261" fill="#000000" font-family="sans-serif" font-size="11" textLength="20">yes</text>
 <text x="1126.4531" y="144.7261" fill="#000000" font-family="sans-serif" font-size="11" textLength="14">no</text>
 <rect x="291.91" y="220.14" width="135" height="47.938" rx="12.5" ry="12.5" fill="#fff" stroke="#000" stroke-width=".5"/>
 <text x="301.9063" y="241.2754" fill="#000000" font-family="sans-serif" font-size="12" font-weight="bold" textLength="47">assign</text>
 <text x="352.9063" y="241.2754" fill="#000000" font-family="sans-serif" font-size="12" textLength="64">the action</text>
 <text x="301.9063" y="255.2441" fill="#000000" font-family="sans-serif" font-size="12" textLength="25">to a</text>
 <text x="330.9063" y="255.2441" fill="#000000" font-family="sans-serif" font-size="12" font-weight="bold" textLength="50">project</text>
 <polygon points="322.91 170.12 395.91 170.12 407.91 182.93 395.91 195.73 322.91 195.73 310.91 182.93" fill="#fff" stroke="#000" stroke-width=".5"/>
 <text x="363.4063" y="205.9448" fill="#000000" font-family="sans-serif" font-size="11" textLength="14">no</text>
 <text x="322.9063" y="180.3354" fill="#000000" font-family="sans-serif" font-size="11" textLength="71">is it the next</text>
 <text x="322.9063" y="193.1401" fill="#000000" font-family="sans-serif" font-size="11" textLength="73">action to do?</text>
 <text x="407.9063" y="180.3354" fill="#000000" font-family="sans-serif" font-size="11" textLength="20">yes</text>
 <polygon points="359.41 292.48 371.41 304.48 359.41 316.48 347.41 304.48" fill="#fff" stroke="#000" stroke-width=".5"/>
 <polygon points="310.91 351.48 407.91 351.48 419.91 364.28 407.91 377.09 310.91 377.09 298.91 364.28" fill="#fff" stroke="#000" stroke-width=".5"/>
 <text x="310.9063" y="361.687" fill="#000000" font-family="sans-serif" font-size="11" textLength="97">action takes less</text>
 <text x="310.9063" y="374.4917" fill="#000000" font-family="sans-serif" font-size="11" textLength="92">than 2 minutes?</text>
 <text x="278.9063" y="361.687" fill="#000000" font-family="sans-serif" font-size="11" textLength="20">yes</text>
 <text x="419.9063" y="361.687" fill="#000000" font-family="sans-serif" font-size="11" textLength="14">no</text>
 <rect x="45" y="387.09" width="63" height="61.906" rx="12.5" ry="12.5" fill="#fff" stroke="#000" stroke-width=".5"/>
 <text x="55" y="408.2246" fill="#000000" font-family="sans-serif" font-size="12" font-weight="bold" textLength="18">do</text>
 <text x="77" y="408.2246" fill="#000000" font-family="sans-serif" font-size="12" textLength="21">the</text>
 <text x="55" y="422.1934" fill="#000000" font-family="sans-serif" font-size="12" textLength="39">action</text>
 <text x="55" y="436.1621" fill="#000000" font-family="sans-serif" font-size="12" textLength="25">now</text>
 <polygon points="596.31 387.09 668.31 387.09 680.31 399.89 668.31 412.7 596.31 412.7 584.31 399.89" fill="#fff" stroke="#000" stroke-width=".5"/>
 <text x="596.3125" y="397.2964" fill="#000000" font-family="sans-serif" font-size="11" textLength="70">is the action</text>
 <text x="596.3125" y="410.1011" fill="#000000" font-family="sans-serif" font-size="11" textLength="72">delegatable?</text>
 <text x="564.3125" y="397.2964" fill="#000000" font-family="sans-serif" font-size="11" textLength="20">yes</text>
 <text x="680.3125" y="397.2964" fill="#000000" font-family="sans-serif" font-size="11" textLength="14">no</text>
 <polygon points="287 422.7 348 422.7 360 435.5 348 448.3 287 448.3 275 435.5" fill="#fff" stroke="#000" stroke-width=".5"/>
 <text x="287" y="432.9058" fill="#000000" font-family="sans-serif" font-size="11" textLength="61">is the item</text>
 <text x="287" y="445.7104" fill="#000000" font-family="sans-serif" font-size="11" textLength="43">urgent?</text>
 <text x="255" y="432.9058" fill="#000000" font-family="sans-serif" font-size="11" textLength="20">yes</text>
 <text x="360" y="432.9058" fill="#000000" font-family="sans-serif" font-size="11" textLength="14">no</text>
 <rect x="118" y="458.3" width="189" height="61.906" rx="12.5" ry="12.5" fill="#fff" stroke="#000" stroke-width=".5"/>
 <text x="128" y="479.4434" fill="#000000" font-family="sans-serif" font-size="12" textLength="12">1.</text>
 <text x="144" y="479.4434" fill="#000000" font-family="sans-serif" font-size="12" textLength="50">FF9900:</text>
 <text x="194" y="479.4434" fill="#000000" font-family="sans-serif" font-size="12" font-weight="bold" textLength="35">label</text>
 <text x="233" y="479.4434" fill="#000000" font-family="sans-serif" font-size="12" textLength="64">the action</text>
 <text x="128" y="493.4121" fill="#000000" font-family="sans-serif" font-size="12" textLength="15">as</text>
 <text x="147" y="493.4121" fill="#000000" font-family="sans-serif" font-size="12" font-weight="bold" textLength="55">Waiting</text>
 <text x="128" y="507.3809" fill="#000000" font-family="sans-serif" font-size="12" textLength="113">(2 in Thunderbird)</text>
 <rect x="327" y="458.3" width="191" height="61.906" rx="12.5" ry="12.5" fill="#fff" stroke="#000" stroke-width=".5"/>
 <text x="337" y="479.4434" fill="#000000" font-family="sans-serif" font-size="12" textLength="12">1.</text>
 <text x="353" y="479.4434" fill="#000000" font-family="sans-serif" font-size="12" textLength="52">009900:</text>
 <text x="405" y="479.4434" fill="#000000" font-family="sans-serif" font-size="12" font-weight="bold" textLength="35">label</text>
 <text x="444" y="479.4434" fill="#000000" font-family="sans-serif" font-size="12" textLength="64">the action</text>
 <text x="337" y="493.4121" fill="#000000" font-family="sans-serif" font-size="12" textLength="15">as</text>
 <text x="356" y="493.4121" fill="#000000" font-family="sans-serif" font-size="12" font-weight="bold" textLength="55">Waiting</text>
 <text x="337" y="507.3809" fill="#000000" font-family="sans-serif" font-size="12" textLength="113">(3 in Thunderbird)</text>
 <polygon points="317.5 526.21 329.5 538.21 317.5 550.21 305.5 538.21" fill="#fff" stroke="#000" stroke-width=".5"/>
 <polygon points="950.62 422.7 1023.6 422.7 1035.6 435.5 1023.6 448.3 950.62 448.3 938.62 435.5" fill="#fff" stroke="#000" stroke-width=".5"/>
 <text x="950.625" y="432.9058" fill="#000000" font-family="sans-serif" font-size="11" textLength="70">is the action</text>
 <text x="950.625" y="445.7104" fill="#000000" font-family="sans-serif" font-size="11" textLength="73">day-specific?</text>
 <text x="918.625" y="432.9058" fill="#000000" font-family="sans-serif" font-size="11" textLength="20">yes</text>
 <text x="1035.625" y="432.9058" fill="#000000" font-family="sans-serif" font-size="11" textLength="14">no</text>
 <polygon points="685.25 458.3 763.25 458.3 775.25 471.11 763.25 483.91 685.25 483.91 673.25 471.11" fill="#fff" stroke="#000" stroke-width=".5"/>
 <text x="685.25" y="468.5151" fill="#000000" font-family="sans-serif" font-size="11" textLength="70">is the action</text>
 <text x="685.25" y="481.3198" fill="#000000" font-family="sans-serif" font-size="11" textLength="78">time-specific?</text>
 <text x="653.25" y="468.5151" fill="#000000" font-family="sans-serif" font-size="11" textLength="20">yes</text>
 <text x="775.25" y="468.5151" fill="#000000" font-family="sans-serif" font-size="11" textLength="14">no</text>
 <rect x="528" y="493.91" width="141" height="61.906" rx="12.5" ry="12.5" fill="#fff" stroke="#000" stroke-width=".5"/>
 <text x="538" y="515.0527" fill="#000000" font-family="sans-serif" font-size="12" font-weight="bold" textLength="46">create</text>
 <text x="588" y="515.0527" fill="#000000" font-family="sans-serif" font-size="12" textLength="8">a</text>
 <text x="538" y="529.0215" fill="#000000" font-family="sans-serif" font-size="12" font-weight="bold" textLength="117">date-time action</text>
 <text x="538" y="542.9902" fill="#000000" font-family="sans-serif" font-size="12" textLength="121">in a calendar event</text>
 <polygon points="815 493.91 885 493.91 897 506.72 885 519.52 815 519.52 803 506.72" fill="#fff" stroke="#000" stroke-width=".5"/>
 <text x="815" y="504.1245" fill="#000000" font-family="sans-serif" font-size="11" textLength="70">is the action</text>
 <text x="815" y="516.9292" fill="#000000" font-family="sans-serif" font-size="11" textLength="70">informative?</text>
 <text x="783" y="504.1245" fill="#000000" font-family="sans-serif" font-size="11" textLength="20">yes</text>
 <text x="897" y="504.1245" fill="#000000" font-family="sans-serif" font-size="11" textLength="14">no</text>
 <rect x="699" y="529.52" width="141" height="61.906" rx="12.5" ry="12.5" fill="#fff" stroke="#000" stroke-width=".5"/>
 <text x="709" y="550.6621" fill="#000000" font-family="sans-serif" font-size="12" font-weight="bold" textLength="46">create</text>
 <text x="759" y="550.6621" fill="#000000" font-family="sans-serif" font-size="12" textLength="8">a</text>
 <text x="709" y="564.6309" fill="#000000" font-family="sans-serif" font-size="12" font-weight="bold" textLength="113">date info-action</text>
 <text x="709" y="578.5996" fill="#000000" font-family="sans-serif" font-size="12" textLength="121">in a calendar event</text>
 <rect x="860" y="529.52" width="141" height="61.906" rx="12.5" ry="12.5" fill="#fff" stroke="#000" stroke-width=".5"/>
 <text x="870" y="550.6621" fill="#000000" font-family="sans-serif" font-size="12" font-weight="bold" textLength="46">create</text>
 <text x="920" y="550.6621" fill="#000000" font-family="sans-serif" font-size="12" textLength="8">a</text>
 <text x="870" y="564.6309" fill="#000000" font-family="sans-serif" font-size="12" font-weight="bold" textLength="81">date action</text>
 <text x="870" y="578.5996" fill="#000000" font-family="sans-serif" font-size="12" textLength="121">in a calendar event</text>
 <polygon points="850 597.43 862 609.43 850 621.43 838 609.43" fill="#fff" stroke="#000" stroke-width=".5"/>
 <polygon points="724.25 627.43 736.25 639.43 724.25 651.43 712.25 639.43" fill="#fff" stroke="#000" stroke-width=".5"/>
 <polygon points="1219.5 458.3 1280.5 458.3 1292.5 471.11 1280.5 483.91 1219.5 483.91 1207.5 471.11" fill="#fff" stroke="#000" stroke-width=".5"/>
 <text x="1219.5" y="468.5151" fill="#000000" font-family="sans-serif" font-size="11" textLength="61">is the item</text>
 <text x="1219.5" y="481.3198" fill="#000000" font-family="sans-serif" font-size="11" textLength="43">urgent?</text>
 <text x="1187.5" y="468.5151" fill="#000000" font-family="sans-serif" font-size="11" textLength="20">yes</text>
 <text x="1292.5" y="468.5151" fill="#000000" font-family="sans-serif" font-size="11" textLength="14">no</text>
 <rect x="1051" y="493.91" width="189" height="61.906" rx="12.5" ry="12.5" fill="#fff" stroke="#000" stroke-width=".5"/>
 <text x="1061" y="515.0527" fill="#000000" font-family="sans-serif" font-size="12" textLength="12">1.</text>
 <text x="1077" y="515.0527" fill="#000000" font-family="sans-serif" font-size="12" textLength="50">FF0000:</text>
 <text x="1127" y="515.0527" fill="#000000" font-family="sans-serif" font-size="12" font-weight="bold" textLength="35">label</text>
 <text x="1166" y="515.0527" fill="#000000" font-family="sans-serif" font-size="12" textLength="64">the action</text>
 <text x="1061" y="529.0215" fill="#000000" font-family="sans-serif" font-size="12" textLength="15">as</text>
 <text x="1080" y="529.0215" fill="#000000" font-family="sans-serif" font-size="12" font-weight="bold" textLength="32">Next</text>
 <text x="1116" y="529.0215" fill="#000000" font-family="sans-serif" font-size="12" textLength="46">(To Do)</text>
 <text x="1061" y="542.9902" fill="#000000" font-family="sans-serif" font-size="12" textLength="113">(1 in Thunderbird)</text>
 <rect x="1260" y="493.91" width="189" height="61.906" rx="12.5" ry="12.5" fill="#fff" stroke="#000" stroke-width=".5"/>
 <text x="1270" y="515.0527" fill="#000000" font-family="sans-serif" font-size="12" textLength="12">1.</text>
 <text x="1286" y="515.0527" fill="#000000" font-family="sans-serif" font-size="12" textLength="50">3333FF:</text>
 <text x="1336" y="515.0527" fill="#000000" font-family="sans-serif" font-size="12" font-weight="bold" textLength="35">label</text>
 <text x="1375" y="515.0527" fill="#000000" font-family="sans-serif" font-size="12" textLength="64">the action</text>
 <text x="1270" y="529.0215" fill="#000000" font-family="sans-serif" font-size="12" textLength="15">as</text>
 <text x="1289" y="529.0215" fill="#000000" font-family="sans-serif" font-size="12" font-weight="bold" textLength="32">Next</text>
 <text x="1325" y="529.0215" fill="#000000" font-family="sans-serif" font-size="12" textLength="46">(To Do)</text>
 <text x="1270" y="542.9902" fill="#000000" font-family="sans-serif" font-size="12" textLength="113">(4 in Thunderbird)</text>
 <polygon points="1250 561.82 1262 573.82 1250 585.82 1238 573.82" fill="#fff" stroke="#000" stroke-width=".5"/>
 <polygon points="987.12 657.43 999.12 669.43 987.12 681.43 975.12 669.43" fill="#fff" stroke="#000" stroke-width=".5"/>
 <polygon points="632.31 687.43 644.31 699.43 632.31 711.43 620.31 699.43" fill="#fff" stroke="#000" stroke-width=".5"/>
 <polygon points="359.41 717.43 371.41 729.43 359.41 741.43 347.41 729.43" fill="#fff" stroke="#000" stroke-width=".5"/>
 <polygon points="1745 170.12 1806 170.12 1818 182.93 1806 195.73 1745 195.73 1733 182.93" fill="#fff" stroke="#000" stroke-width=".5"/>
 <text x="1745" y="180.3354" fill="#000000" font-family="sans-serif" font-size="11" textLength="61">is the item</text>
 <text x="1745" y="193.1401" fill="#000000" font-family="sans-serif" font-size="11" textLength="48">needed?</text>
 <text x="1713" y="180.3354" fill="#000000" font-family="sans-serif" font-size="11" textLength="20">yes</text>
 <text x="1818" y="180.3354" fill="#000000" font-family="sans-serif" font-size="11" textLength="14">no</text>
 <polygon points="1612.5 205.73 1683.5 205.73 1695.5 218.54 1683.5 231.34 1612.5 231.34 1600.5 218.54" fill="#fff" stroke="#000" stroke-width=".5"/>
 <text x="1612.5" y="215.9448" fill="#000000" font-family="sans-serif" font-size="11" textLength="61">is the item</text>
 <text x="1612.5" y="228.7495" fill="#000000" font-family="sans-serif" font-size="11" textLength="71">incubatable?</text>
 <text x="1580.5" y="215.9448" fill="#000000" font-family="sans-serif" font-size="11" textLength="20">yes</text>
 <text x="1695.5" y="215.9448" fill="#000000" font-family="sans-serif" font-size="11" textLength="14">no</text>
 <rect x="1459" y="241.34" width="179" height="61.906" rx="12.5" ry="12.5" fill="#fff" stroke="#000" stroke-width=".5"/>
 <text x="1469" y="262.4824" fill="#000000" font-family="sans-serif" font-size="12" textLength="12">1.</text>
 <text x="1485" y="262.4824" fill="#000000" font-family="sans-serif" font-size="12" textLength="52">993399:</text>
 <text x="1537" y="262.4824" fill="#000000" font-family="sans-serif" font-size="12" font-weight="bold" textLength="35">label</text>
 <text x="1576" y="262.4824" fill="#000000" font-family="sans-serif" font-size="12" textLength="52">the item</text>
 <text x="1469" y="276.4512" fill="#000000" font-family="sans-serif" font-size="12" textLength="15">as</text>
 <text x="1488" y="276.4512" fill="#000000" font-family="sans-serif" font-size="12" font-weight="bold" textLength="38">Later</text>
 <text x="1469" y="290.4199" fill="#000000" font-family="sans-serif" font-size="12" textLength="113">(5 in Thunderbird)</text>
 <rect x="1658" y="241.34" width="179" height="61.906" rx="12.5" ry="12.5" fill="#fff" stroke="#000" stroke-width=".5"/>
 <text x="1668" y="262.4824" fill="#000000" font-family="sans-serif" font-size="12" textLength="12">1.</text>
 <text x="1684" y="262.4824" fill="#000000" font-family="sans-serif" font-size="12" textLength="52">CCCCCC:</text>
 <text x="1736" y="262.4824" fill="#000000" font-family="sans-serif" font-size="12" font-weight="bold" textLength="35">label</text>
 <text x="1775" y="262.4824" fill="#000000" font-family="sans-serif" font-size="12" textLength="52">the item</text>
 <text x="1668" y="276.4512" fill="#000000" font-family="sans-serif" font-size="12" textLength="15">as</text>
 <text x="1687" y="276.4512" fill="#000000" font-family="sans-serif" font-size="12" font-weight="bold" textLength="72">Reference</text>
 <text x="1668" y="290.4199" fill="#000000" font-family="sans-serif" font-size="12" textLength="113">(6 in Thunderbird)</text>
 <polygon points="1648 309.25 1660 321.25 1648 333.25 1636 321.25" fill="#fff" stroke="#000" stroke-width=".5"/>
 <rect x="1847" y="205.73" width="72" height="61.906" rx="12.5" ry="12.5" fill="#fff" stroke="#000" stroke-width=".5"/>
 <text x="1857" y="226.873" fill="#000000" font-family="sans-serif" font-size="12" font-weight="bold" textLength="38">trash</text>
 <text x="1857" y="240.8418" fill="#000000" font-family="sans-serif" font-size="12" textLength="52">the item</text>
 <text x="1857" y="254.8105" fill="#000000" font-family="sans-serif" font-size="12" textLength="25">now</text>
 <polygon points="1775.5 339.25 1787.5 351.25 1775.5 363.25 1763.5 351.25" fill="#fff" stroke="#000" stroke-width=".5"/>
 <polygon points="1082.5 747.43 1094.5 759.43 1082.5 771.43 1070.5 759.43" fill="#fff" stroke="#000" stroke-width=".5"/>
 <polygon points="1038 87.297 1127 87.297 1139 100.1 1127 112.91 1038 112.91 1026 100.1" fill="#fff" stroke="#000" stroke-width=".5"/>
 <text x="1037.9531" y="97.5073" fill="#000000" font-family="sans-serif" font-size="11" textLength="89">are there items</text>
 <text x="1037.9531" y="110.312" fill="#000000" font-family="sans-serif" font-size="11" textLength="71">to organise?</text>
 <text x="1011.9531" y="97.5073" fill="#000000" font-family="sans-serif" font-size="11" textLength="14">no</text>
 <ellipse cx="24" cy="143.91" rx="11" ry="11" fill="none" stroke="#222"/>
 <ellipse cx="24" cy="143.91" rx="6" ry="6" fill="#222" stroke="#111"/>
 <line x1="359.41" x2="359.41" y1="195.73" y2="220.14" stroke="#000"/>
 <polygon points="355.41 210.14 359.41 220.14 363.41 210.14 359.41 214.14" stroke="#000"/>
 <line x1="407.91" x2="436.91" y1="182.93" y2="182.93" stroke="#000"/>
 <polygon points="432.91 233.7 436.91 243.7 440.91 233.7 436.91 237.7" stroke="#000"/>
 <line x1="436.91" x2="436.91" y1="182.93" y2="304.48" stroke="#000"/>
 <line x1="436.91" x2="371.41" y1="304.48" y2="304.48" stroke="#000"/>
 <polygon points="381.41 300.48 371.41 304.48 381.41 308.48 377.41 304.48" stroke="#000"/>
 <line x1="359.41" x2="359.41" y1="268.07" y2="292.48" stroke="#000"/>
 <polygon points="355.41 282.48 359.41 292.48 363.41 282.48 359.41 286.48" stroke="#000"/>
 <line x1="275" x2="212.5" y1="435.5" y2="435.5" stroke="#000"/>
 <line x1="212.5" x2="212.5" y1="435.5" y2="458.3" stroke="#000"/>
 <polygon points="208.5 448.3 212.5 458.3 216.5 448.3 212.5 452.3" stroke="#000"/>
 <line x1="360" x2="422.5" y1="435.5" y2="435.5" stroke="#000"/>
 <line x1="422.5" x2="422.5" y1="435.5" y2="458.3" stroke="#000"/>
 <polygon points="418.5 448.3 422.5 458.3 426.5 448.3 422.5 452.3" stroke="#000"/>
 <line x1="212.5" x2="212.5" y1="520.21" y2="538.21" stroke="#000"/>
 <line x1="212.5" x2="305.5" y1="538.21" y2="538.21" stroke="#000"/>
 <polygon points="295.5 534.21 305.5 538.21 295.5 542.21 299.5 538.21" stroke="#000"/>
 <line x1="422.5" x2="422.5" y1="520.21" y2="538.21" stroke="#000"/>
 <line x1="422.5" x2="329.5" y1="538.21" y2="538.21" stroke="#000"/>
 <polygon points="339.5 534.21 329.5 538.21 339.5 542.21 335.5 538.21" stroke="#000"/>
 <line x1="803" x2="769.5" y1="506.72" y2="506.72" stroke="#000"/>
 <line x1="769.5" x2="769.5" y1="506.72" y2="529.52" stroke="#000"/>
 <polygon points="765.5 519.52 769.5 529.52 773.5 519.52 769.5 523.52" stroke="#000"/>
 <line x1="897" x2="930.5" y1="506.72" y2="506.72" stroke="#000"/>
 <line x1="930.5" x2="930.5" y1="506.72" y2="529.52" stroke="#000"/>
 <polygon points="926.5 519.52 930.5 529.52 934.5 519.52 930.5 523.52" stroke="#000"/>
 <line x1="769.5" x2="769.5" y1="591.43" y2="609.43" stroke="#000"/>
 <line x1="769.5" x2="838" y1="609.43" y2="609.43" stroke="#000"/>
 <polygon points="828 605.43 838 609.43 828 613.43 832 609.43" stroke="#000"/>
 <line x1="930.5" x2="930.5" y1="591.43" y2="609.43" stroke="#000"/>
 <line x1="930.5" x2="862" y1="609.43" y2="609.43" stroke="#000"/>
 <polygon points="872 605.43 862 609.43 872 613.43 868 609.43" stroke="#000"/>
 <line x1="673.25" x2="598.5" y1="471.11" y2="471.11" stroke="#000"/>
 <line x1="598.5" x2="598.5" y1="471.11" y2="493.91" stroke="#000"/>
 <polygon points="594.5 483.91 598.5 493.91 602.5 483.91 598.5 487.91" stroke="#000"/>
 <line x1="775.25" x2="850" y1="471.11" y2="471.11" stroke="#000"/>
 <line x1="850" x2="850" y1="471.11" y2="493.91" stroke="#000"/>
 <polygon points="846 483.91 850 493.91 854 483.91 850 487.91" stroke="#000"/>
 <line x1="598.5" x2="598.5" y1="555.82" y2="639.43" stroke="#000"/>
 <line x1="598.5" x2="712.25" y1="639.43" y2="639.43" stroke="#000"/>
 <polygon points="702.25 635.43 712.25 639.43 702.25 643.43 706.25 639.43" stroke="#000"/>
 <line x1="850" x2="850" y1="621.43" y2="639.43" stroke="#000"/>
 <line x1="850" x2="736.25" y1="639.43" y2="639.43" stroke="#000"/>
 <polygon points="746.25 635.43 736.25 639.43 746.25 643.43 742.25 639.43" stroke="#000"/>
 <line x1="1207.5" x2="1145.5" y1="471.11" y2="471.11" stroke="#000"/>
 <line x1="1145.5" x2="1145.5" y1="471.11" y2="493.91" stroke="#000"/>
 <polygon points="1141.5 483.91 1145.5 493.91 1149.5 483.91 1145.5 487.91" stroke="#000"/>
 <line x1="1292.5" x2="1354.5" y1="471.11" y2="471.11" stroke="#000"/>
 <line x1="1354.5" x2="1354.5" y1="471.11" y2="493.91" stroke="#000"/>
 <polygon points="1350.5 483.91 1354.5 493.91 1358.5 483.91 1354.5 487.91" stroke="#000"/>
 <line x1="1145.5" x2="1145.5" y1="555.82" y2="573.82" stroke="#000"/>
 <line x1="1145.5" x2="1238" y1="573.82" y2="573.82" stroke="#000"/>
 <polygon points="1228 569.82 1238 573.82 1228 577.82 1232 573.82" stroke="#000"/>
 <line x1="1354.5" x2="1354.5" y1="555.82" y2="573.82" stroke="#000"/>
 <line x1="1354.5" x2="1262" y1="573.82" y2="573.82" stroke="#000"/>
 <polygon points="1272 569.82 1262 573.82 1272 577.82 1268 573.82" stroke="#000"/>
 <line x1="938.62" x2="724.25" y1="435.5" y2="435.5" stroke="#000"/>
 <line x1="724.25" x2="724.25" y1="435.5" y2="458.3" stroke="#000"/>
 <polygon points="720.25 448.3 724.25 458.3 728.25 448.3 724.25 452.3" stroke="#000"/>
 <line x1="1035.6" x2="1250" y1="435.5" y2="435.5" stroke="#000"/>
 <line x1="1250" x2="1250" y1="435.5" y2="458.3" stroke="#000"/>
 <polygon points="1246 448.3 1250 458.3 1254 448.3 1250 452.3" stroke="#000"/>
 <line x1="724.25" x2="724.25" y1="651.43" y2="669.43" stroke="#000"/>
 <line x1="724.25" x2="975.12" y1="669.43" y2="669.43" stroke="#000"/>
 <polygon points="965.12 665.43 975.12 669.43 965.12 673.43 969.12 669.43" stroke="#000"/>
 <line x1="1250" x2="1250" y1="585.82" y2="669.43" stroke="#000"/>
 <line x1="1250" x2="999.12" y1="669.43" y2="669.43" stroke="#000"/>
 <polygon points="1009.1 665.43 999.12 669.43 1009.1 673.43 1005.1 669.43" stroke="#000"/>
 <line x1="584.31" x2="317.5" y1="399.89" y2="399.89" stroke="#000"/>
 <line x1="317.5" x2="317.5" y1="399.89" y2="422.7" stroke="#000"/>
 <polygon points="313.5 412.7 317.5 422.7 321.5 412.7 317.5 416.7" stroke="#000"/>
 <line x1="680.31" x2="987.12" y1="399.89" y2="399.89" stroke="#000"/>
 <line x1="987.12" x2="987.12" y1="399.89" y2="422.7" stroke="#000"/>
 <polygon points="983.12 412.7 987.12 422.7 991.12 412.7 987.12 416.7" stroke="#000"/>
 <line x1="317.5" x2="317.5" y1="550.21" y2="699.43" stroke="#000"/>
 <line x1="317.5" x2="620.31" y1="699.43" y2="699.43" stroke="#000"/>
 <polygon points="610.31 695.43 620.31 699.43 610.31 703.43 614.31 699.43" stroke="#000"/>
 <line x1="987.12" x2="987.12" y1="681.43" y2="699.43" stroke="#000"/>
 <line x1="987.12" x2="644.31" y1="699.43" y2="699.43" stroke="#000"/>
 <polygon points="654.31 695.43 644.31 699.43 654.31 703.43 650.31 699.43" stroke="#000"/>
 <line x1="298.91" x2="76.5" y1="364.28" y2="364.28" stroke="#000"/>
 <line x1="76.5" x2="76.5" y1="364.28" y2="387.09" stroke="#000"/>
 <polygon points="72.5 377.09 76.5 387.09 80.5 377.09 76.5 381.09" stroke="#000"/>
 <line x1="419.91" x2="632.31" y1="364.28" y2="364.28" stroke="#000"/>
 <line x1="632.31" x2="632.31" y1="364.28" y2="387.09" stroke="#000"/>
 <polygon points="628.31 377.09 632.31 387.09 636.31 377.09 632.31 381.09" stroke="#000"/>
 <line x1="76.5" x2="76.5" y1="448.99" y2="729.43" stroke="#000"/>
 <line x1="76.5" x2="347.41" y1="729.43" y2="729.43" stroke="#000"/>
 <polygon points="337.41 725.43 347.41 729.43 337.41 733.43 341.41 729.43" stroke="#000"/>
 <line x1="632.31" x2="632.31" y1="711.43" y2="729.43" stroke="#000"/>
 <line x1="632.31" x2="371.41" y1="729.43" y2="729.43" stroke="#000"/>
 <polygon points="381.41 725.43 371.41 729.43 381.41 733.43 377.41 729.43" stroke="#000"/>
 <line x1="359.41" x2="359.41" y1="316.48" y2="351.48" stroke="#000"/>
 <polygon points="355.41 341.48 359.41 351.48 363.41 341.48 359.41 345.48" stroke="#000"/>
 <line x1="1600.5" x2="1548.5" y1="218.54" y2="218.54" stroke="#000"/>
 <line x1="1548.5" x2="1548.5" y1="218.54" y2="241.34" stroke="#000"/>
 <polygon points="1544.5 231.34 1548.5 241.34 1552.5 231.34 1548.5 235.34" stroke="#000"/>
 <line x1="1695.5" x2="1747.5" y1="218.54" y2="218.54" stroke="#000"/>
 <line x1="1747.5" x2="1747.5" y1="218.54" y2="241.34" stroke="#000"/>
 <polygon points="1743.5 231.34 1747.5 241.34 1751.5 231.34 1747.5 235.34" stroke="#000"/>
 <line x1="1548.5" x2="1548.5" y1="303.25" y2="321.25" stroke="#000"/>
 <line x1="1548.5" x2="1636" y1="321.25" y2="321.25" stroke="#000"/>
 <polygon points="1626 317.25 1636 321.25 1626 325.25 1630 321.25" stroke="#000"/>
 <line x1="1747.5" x2="1747.5" y1="303.25" y2="321.25" stroke="#000"/>
 <line x1="1747.5" x2="1660" y1="321.25" y2="321.25" stroke="#000"/>
 <polygon points="1670 317.25 1660 321.25 1670 325.25 1666 321.25" stroke="#000"/>
 <line x1="1733" x2="1648" y1="182.93" y2="182.93" stroke="#000"/>
 <line x1="1648" x2="1648" y1="182.93" y2="205.73" stroke="#000"/>
 <polygon points="1644 195.73 1648 205.73 1652 195.73 1648 199.73" stroke="#000"/>
 <line x1="1818" x2="1883" y1="182.93" y2="182.93" stroke="#000"/>
 <line x1="1883" x2="1883" y1="182.93" y2="205.73" stroke="#000"/>
 <polygon points="1879 195.73 1883 205.73 1887 195.73 1883 199.73" stroke="#000"/>
 <line x1="1648" x2="1648" y1="333.25" y2="351.25" stroke="#000"/>
 <line x1="1648" x2="1763.5" y1="351.25" y2="351.25" stroke="#000"/>
 <polygon points="1753.5 347.25 1763.5 351.25 1753.5 355.25 1757.5 351.25" stroke="#000"/>
 <line x1="1883" x2="1883" y1="267.64" y2="351.25" stroke="#000"/>
 <line x1="1883" x2="1787.5" y1="351.25" y2="351.25" stroke="#000"/>
 <polygon points="1797.5 347.25 1787.5 351.25 1797.5 355.25 1793.5 351.25" stroke="#000"/>
 <line x1="1038.5" x2="359.41" y1="147.32" y2="147.32" stroke="#000"/>
 <line x1="359.41" x2="359.41" y1="147.32" y2="170.12" stroke="#000"/>
 <polygon points="355.41 160.12 359.41 170.12 363.41 160.12 359.41 164.12" stroke="#000"/>
 <line x1="1126.5" x2="1775.5" y1="147.32" y2="147.32" stroke="#000"/>
 <line x1="1775.5" x2="1775.5" y1="147.32" y2="170.12" stroke="#000"/>
 <polygon points="1771.5 160.12 1775.5 170.12 1779.5 160.12 1775.5 164.12" stroke="#000"/>
 <line x1="359.41" x2="359.41" y1="741.43" y2="759.43" stroke="#000"/>
 <line x1="359.41" x2="1070.5" y1="759.43" y2="759.43" stroke="#000"/>
 <polygon points="1060.5 755.43 1070.5 759.43 1060.5 763.43 1064.5 759.43" stroke="#000"/>
 <line x1="1775.5" x2="1775.5" y1="363.25" y2="759.43" stroke="#000"/>
 <line x1="1775.5" x2="1094.5" y1="759.43" y2="759.43" stroke="#000"/>
 <polygon points="1104.5 755.43 1094.5 759.43 1104.5 763.43 1100.5 759.43" stroke="#000"/>
 <line x1="1082.5" x2="1082.5" y1="112.91" y2="134.52" stroke="#000"/>
 <polygon points="1078.5 124.52 1082.5 134.52 1086.5 124.52 1082.5 128.52" stroke="#000"/>
 <line x1="1082.5" x2="1082.5" y1="771.43" y2="781.43" stroke="#000"/>
 <line x1="1082.5" x2="1933" y1="781.43" y2="781.43" stroke="#000"/>
 <polygon points="1929 450.57 1933 440.57 1937 450.57 1933 446.57" stroke="#000"/>
 <line x1="1933" x2="1933" y1="100.1" y2="781.43" stroke="#000"/>
 <line x1="1933" x2="1139" y1="100.1" y2="100.1" stroke="#000"/>
 <polygon points="1149 96.102 1139 100.1 1149 104.1 1145 100.1" stroke="#000"/>
 <line x1="1026" x2="24" y1="100.1" y2="100.1" stroke="#000"/>
 <line x1="24" x2="24" y1="100.1" y2="132.91" stroke="#000"/>
 <polygon points="20 122.91 24 132.91 28 122.91 24 126.91" stroke="#000"/>
 <line x1="1082.5" x2="1082.5" y1="67.297" y2="87.297" stroke="#000"/>
 <polygon points="1078.5 77.297 1082.5 87.297 1086.5 77.297 1082.5 81.297" stroke="#000"/>
 <!--SRC=[dLLDZzCm4BtdLupKItke25j0IhjQn2ug5mGIMcallKoIQMgQZYlRtL8X_ZlZVD5kFbObXoIsn- -zUHxRJhcSu0ivfpY3nusyBNpMJ325xoP3LfO2krMyHuCxmCIfP-LEy3i0kDSc9VEWSsqWpZ7PIjydO_JnikjUFfdH1qxB_kD6EGh-185rQ5mWJL4mHaFWDYHl6TtP5JiDkXBmSI8mQWrZPNrC4R5YhqKpnhcC-sw6yOci3ss2bIlYcNwvEXu4DzNj6PHRKS6wR07CR-Cxj5PbVFiclYjWIe126O8Cxut-IOdpuuiIWrErRlXhFjoIXPoipsc333UmKtnmPDiYIjfKrvIrw1MpFYuwTPxPKiUcb5E6hjkP5tDAAmyc8tRTmQ9fj5n6KHXwRJd6bBSSGUlzU4BbgyYFhdXy0ugbe6JPoSJAf9D50_aoXv8a3AydcGsGD8lHHTXb6vwcTa-9MgkapugEQKxjwDLvvS8cXj1HaHYksA-qDASUe48hivAK41BC9GCqGC-oD8iph2xtEfKfNckpGzcnrAzhG1buWEaLolgq3N5S1t-sfkrs5_cLfLuMUnY-NeVVv4mfXiQFMWxCYHJZs_vYx7DcFfh9irp-1zkxGRPBOywtGlDV_rqgQnd6H2cbNOQrGXKdXtZeu9cFecWsYw9skjMHNYJxLUh2L1lyVL-MRJ_deuVY6GR_GMkvP3YXYk13By4_epgk1cVGRag8CwkQGxgsjlZAkxhaF8PrUlyN]-->
</svg>
